<svg width="16" height="16" viewBox="0 0 16 16" fill="none" xmlns="http://www.w3.org/2000/svg">
<path fill-rule="evenodd" clip-rule="evenodd" d="M1.10723 0.0651893C1.57985 -0.00790448 2.12719 -0.0200595 2.62885 0.0313979C3.13051 0.0828554 3.5454 0.19371 3.78225 0.339578L15.7421 7.72224C15.881 7.80779 15.9534 7.90216 15.9534 7.99786C15.9534 8.09355 15.881 8.18792 15.7421 8.27348L3.78225 15.6561C3.66622 15.729 3.5046 15.7941 3.30672 15.8476C3.10884 15.9011 2.8786 15.9419 2.62928 15.9678C2.37997 15.9937 2.1165 16.0042 1.85408 15.9985C1.59166 15.9928 1.33547 15.9712 1.10028 15.9348C0.865095 15.8984 0.655562 15.848 0.483765 15.7866C0.311967 15.7251 0.181304 15.6537 0.0993066 15.5765C0.0173089 15.4994 -0.0144002 15.418 0.00600689 15.3371C0.026414 15.2561 0.0985337 15.1772 0.218209 15.1049L11.7276 7.99786L0.218209 0.890817C-0.0186146 0.744945 -0.0579976 0.576011 0.108724 0.421178C0.275446 0.266344 0.634616 0.138292 1.10723 0.0651893Z" fill="#E6E6E6"/>
</svg>
