<svg width="64" height="65" viewBox="0 0 64 65" fill="none" xmlns="http://www.w3.org/2000/svg">
<circle cx="32" cy="32.5225" r="30.5" fill="#D9D9D9" stroke="#EBEBEB" stroke-width="3"/>
<path fill-rule="evenodd" clip-rule="evenodd" d="M24.6657 20.6202C25.3767 20.5106 26.2001 20.4924 26.9548 20.5696C27.7095 20.6467 28.3337 20.813 28.69 21.0318L46.6822 32.1058C46.8912 32.2341 47 32.3757 47 32.5192C47 32.6628 46.8912 32.8043 46.6822 32.9327L28.69 44.0067C28.5154 44.116 28.2723 44.2136 27.9746 44.2938C27.6769 44.3741 27.3305 44.4354 26.9555 44.4742C26.5804 44.5131 26.184 44.5287 25.7893 44.5202C25.3945 44.5117 25.0091 44.4792 24.6552 44.4247C24.3014 44.3701 23.9862 44.2945 23.7278 44.2023C23.4693 44.1101 23.2728 44.003 23.1494 43.8873C23.026 43.7716 22.9783 43.6495 23.009 43.528C23.0397 43.4066 23.1482 43.2883 23.3283 43.1798L40.6428 32.5192L23.3283 21.8587C22.972 21.6399 22.9127 21.3865 23.1636 21.1542C23.4144 20.922 23.9547 20.7299 24.6657 20.6202Z" fill="#EBEBEB"/>
</svg>
