<svg width="64" height="64" viewBox="0 0 64 64" fill="none" xmlns="http://www.w3.org/2000/svg">
<circle cx="32" cy="32" r="32" fill="#EBEBEB"/>
<circle cx="32" cy="32" r="30.5" stroke="#D9D9D9" stroke-opacity="0.5" stroke-width="3"/>
<path fill-rule="evenodd" clip-rule="evenodd" d="M41.3343 20.0978C40.6233 19.9881 39.7999 19.9699 39.0452 20.0471C38.2905 20.1243 37.6663 20.2906 37.31 20.5094L19.3178 31.5834C19.1088 31.7117 19 31.8532 19 31.9968C19 32.1403 19.1088 32.2819 19.3178 32.4102L37.31 43.4842C37.4846 43.5935 37.7277 43.6911 38.0254 43.7713C38.3231 43.8516 38.6695 43.9129 39.0445 43.9518C39.4196 43.9906 39.816 44.0063 40.2107 43.9977C40.6055 43.9892 40.9909 43.9568 41.3448 43.9022C41.6986 43.8476 42.0138 43.7721 42.2722 43.6798C42.5307 43.5876 42.7272 43.4805 42.8506 43.3648C42.974 43.2491 43.0217 43.127 42.991 43.0056C42.9603 42.8842 42.8518 42.7658 42.6717 42.6573L25.3572 31.9968L42.6717 21.3362C43.028 21.1174 43.0873 20.864 42.8364 20.6318C42.5856 20.3995 42.0453 20.2074 41.3343 20.0978Z" fill="#111B59"/>
</svg>
