<svg width="24" height="24" viewBox="0 0 24 24" fill="none" xmlns="http://www.w3.org/2000/svg">
<path d="M0.75 8.63309C0.948912 8.63309 1.13968 8.54214 1.28033 8.38024C1.42098 8.21833 1.5 7.99875 1.5 7.76978V3.45324C1.5 2.99531 1.65804 2.55614 1.93934 2.23233C2.22064 1.90853 2.60218 1.72662 3 1.72662H21C21.3978 1.72662 21.7794 1.90853 22.0607 2.23233C22.342 2.55614 22.5 2.99531 22.5 3.45324V7.76978C22.5 7.99875 22.579 8.21833 22.7197 8.38024C22.8603 8.54214 23.0511 8.63309 23.25 8.63309C23.4489 8.63309 23.6397 8.54214 23.7803 8.38024C23.921 8.21833 24 7.99875 24 7.76978V3.45324C24 2.53738 23.6839 1.65904 23.1213 1.01143C22.5587 0.363821 21.7956 -1.06543e-06 21 -1.06543e-06H3C2.20435 -1.06543e-06 1.44129 0.363821 0.87868 1.01143C0.316071 1.65904 0 2.53738 0 3.45324V7.76978C0 7.99875 0.0790176 8.21833 0.21967 8.38024C0.360322 8.54214 0.551088 8.63309 0.75 8.63309Z" fill="white"/>
<path d="M11.469 5.25928C11.5387 5.17888 11.6214 5.1151 11.7125 5.07157C11.8037 5.02805 11.9013 5.00565 12 5.00565C12.0987 5.00565 12.1963 5.02805 12.2874 5.07157C12.3786 5.1151 12.4613 5.17888 12.531 5.25928L17.031 10.4391C17.1718 10.6012 17.2509 10.8211 17.2509 11.0504C17.2509 11.2796 17.1718 11.4995 17.031 11.6616C16.8902 11.8237 16.6992 11.9148 16.5 11.9148C16.3008 11.9148 16.1098 11.8237 15.969 11.6616L12.75 7.95453V23.1367C12.75 23.3657 12.671 23.5852 12.5303 23.7471C12.3897 23.909 12.1989 24 12 24C11.8011 24 11.6103 23.909 11.4697 23.7471C11.329 23.5852 11.25 23.3657 11.25 23.1367V7.95453L8.031 11.6616C7.89017 11.8237 7.69916 11.9148 7.5 11.9148C7.30084 11.9148 7.10983 11.8237 6.969 11.6616C6.82817 11.4995 6.74905 11.2796 6.74905 11.0504C6.74905 10.8211 6.82817 10.6012 6.969 10.4391L11.469 5.25928Z" fill="white"/>
</svg>
