<svg width="64" height="64" viewBox="0 0 64 64" fill="none" xmlns="http://www.w3.org/2000/svg">
<circle cx="32" cy="32" r="32" transform="rotate(-180 32 32)" fill="#EBEBEB"/>
<circle cx="32" cy="32" r="30.5" transform="rotate(-180 32 32)" stroke="#D9D9D9" stroke-opacity="0.5" stroke-width="3"/>
<path fill-rule="evenodd" clip-rule="evenodd" d="M22.6657 43.9022C23.3767 44.0119 24.2001 44.0301 24.9548 43.9529C25.7095 43.8757 26.3337 43.7094 26.69 43.4906L44.6822 32.4166C44.8912 32.2883 45 32.1468 45 32.0032C45 31.8597 44.8912 31.7181 44.6822 31.5898L26.69 20.5158C26.5154 20.4065 26.2723 20.3089 25.9746 20.2287C25.6769 20.1484 25.3305 20.0871 24.9555 20.0482C24.5804 20.0094 24.184 19.9937 23.7893 20.0023C23.3945 20.0108 23.0091 20.0432 22.6552 20.0978C22.3014 20.1524 21.9862 20.2279 21.7278 20.3202C21.4693 20.4124 21.2728 20.5195 21.1494 20.6352C21.026 20.7509 20.9783 20.873 21.009 20.9944C21.0397 21.1158 21.1482 21.2342 21.3283 21.3427L38.6428 32.0032L21.3283 42.6638C20.972 42.8826 20.9127 43.136 21.1636 43.3682C21.4144 43.6005 21.9547 43.7926 22.6657 43.9022Z" fill="#111B59"/>
</svg>
