<svg width="24" height="24" viewBox="0 0 24 24" fill="none" xmlns="http://www.w3.org/2000/svg">
<path d="M23.25 15.3669C23.0511 15.3669 22.8603 15.4579 22.7197 15.6198C22.579 15.7817 22.5 16.0013 22.5 16.2302V20.5468C22.5 21.0047 22.342 21.4439 22.0607 21.7677C21.7794 22.0915 21.3978 22.2734 21 22.2734L3 22.2734C2.60218 22.2734 2.22064 22.0915 1.93934 21.7677C1.65804 21.4439 1.5 21.0047 1.5 20.5468V16.2302C1.5 16.0013 1.42098 15.7817 1.28033 15.6198C1.13968 15.4579 0.948913 15.3669 0.750001 15.3669C0.551088 15.3669 0.360323 15.4579 0.21967 15.6198C0.0790181 15.7817 5.36442e-07 16.0013 5.36442e-07 16.2302V20.5468C5.36442e-07 21.4626 0.316072 22.341 0.878682 22.9886C1.44129 23.6362 2.20435 24 3 24L21 24C21.7956 24 22.5587 23.6362 23.1213 22.9886C23.6839 22.341 24 21.4626 24 20.5468V16.2302C24 16.0013 23.921 15.7817 23.7803 15.6198C23.6397 15.4579 23.4489 15.3669 23.25 15.3669Z" fill="white"/>
<path d="M12.531 18.7407C12.4613 18.8211 12.3786 18.8849 12.2875 18.9284C12.1963 18.9719 12.0987 18.9943 12 18.9943C11.9013 18.9943 11.8037 18.9719 11.7126 18.9284C11.6214 18.8849 11.5387 18.8211 11.469 18.7407L6.969 13.5609C6.82817 13.3988 6.74905 13.1789 6.74905 12.9496C6.74905 12.7204 6.82817 12.5005 6.969 12.3384C7.10983 12.1763 7.30084 12.0852 7.5 12.0852C7.69916 12.0852 7.89017 12.1763 8.031 12.3384L11.25 16.0455L11.25 0.863309C11.25 0.634345 11.329 0.414759 11.4697 0.252857C11.6103 0.0909555 11.8011 0 12 0C12.1989 0 12.3897 0.0909555 12.5303 0.252857C12.671 0.414759 12.75 0.634345 12.75 0.863309L12.75 16.0455L15.969 12.3384C16.1098 12.1763 16.3008 12.0852 16.5 12.0852C16.6992 12.0852 16.8902 12.1763 17.031 12.3384C17.1718 12.5005 17.2509 12.7204 17.2509 12.9496C17.2509 13.1789 17.1718 13.3988 17.031 13.5609L12.531 18.7407Z" fill="white"/>
</svg>
