<svg width="24" height="22" viewBox="0 0 24 22" fill="none" xmlns="http://www.w3.org/2000/svg">
<path d="M2.25 1.375C2.05109 1.375 1.86032 1.44743 1.71967 1.57636C1.57902 1.7053 1.5 1.88016 1.5 2.0625V6.1875C1.5 6.36984 1.42098 6.5447 1.28033 6.67364C1.13968 6.80257 0.948912 6.875 0.75 6.875C0.551088 6.875 0.360322 6.80257 0.21967 6.67364C0.0790176 6.5447 0 6.36984 0 6.1875V2.0625C0 1.51549 0.237053 0.990886 0.65901 0.604092C1.08097 0.217298 1.65326 0 2.25 0L6.75 0C6.94891 0 7.13968 0.0724328 7.28033 0.201364C7.42098 0.330295 7.5 0.505164 7.5 0.6875C7.5 0.869836 7.42098 1.0447 7.28033 1.17364C7.13968 1.30257 6.94891 1.375 6.75 1.375H2.25ZM16.5 0.6875C16.5 0.505164 16.579 0.330295 16.7197 0.201364C16.8603 0.0724328 17.0511 0 17.25 0L21.75 0C22.3467 0 22.919 0.217298 23.341 0.604092C23.7629 0.990886 24 1.51549 24 2.0625V6.1875C24 6.36984 23.921 6.5447 23.7803 6.67364C23.6397 6.80257 23.4489 6.875 23.25 6.875C23.0511 6.875 22.8603 6.80257 22.7197 6.67364C22.579 6.5447 22.5 6.36984 22.5 6.1875V2.0625C22.5 1.88016 22.421 1.7053 22.2803 1.57636C22.1397 1.44743 21.9489 1.375 21.75 1.375H17.25C17.0511 1.375 16.8603 1.30257 16.7197 1.17364C16.579 1.0447 16.5 0.869836 16.5 0.6875ZM0.75 15.125C0.948912 15.125 1.13968 15.1974 1.28033 15.3264C1.42098 15.4553 1.5 15.6302 1.5 15.8125V19.9375C1.5 20.1198 1.57902 20.2947 1.71967 20.4236C1.86032 20.5526 2.05109 20.625 2.25 20.625H6.75C6.94891 20.625 7.13968 20.6974 7.28033 20.8264C7.42098 20.9553 7.5 21.1302 7.5 21.3125C7.5 21.4948 7.42098 21.6697 7.28033 21.7986C7.13968 21.9276 6.94891 22 6.75 22H2.25C1.65326 22 1.08097 21.7827 0.65901 21.3959C0.237053 21.0091 0 20.4845 0 19.9375L0 15.8125C0 15.6302 0.0790176 15.4553 0.21967 15.3264C0.360322 15.1974 0.551088 15.125 0.75 15.125ZM23.25 15.125C23.4489 15.125 23.6397 15.1974 23.7803 15.3264C23.921 15.4553 24 15.6302 24 15.8125V19.9375C24 20.4845 23.7629 21.0091 23.341 21.3959C22.919 21.7827 22.3467 22 21.75 22H17.25C17.0511 22 16.8603 21.9276 16.7197 21.7986C16.579 21.6697 16.5 21.4948 16.5 21.3125C16.5 21.1302 16.579 20.9553 16.7197 20.8264C16.8603 20.6974 17.0511 20.625 17.25 20.625H21.75C21.9489 20.625 22.1397 20.5526 22.2803 20.4236C22.421 20.2947 22.5 20.1198 22.5 19.9375V15.8125C22.5 15.6302 22.579 15.4553 22.7197 15.3264C22.8603 15.1974 23.0511 15.125 23.25 15.125ZM4.5 6.1875C4.5 6.00516 4.57902 5.8303 4.71967 5.70136C4.86032 5.57243 5.05109 5.5 5.25 5.5C5.44891 5.5 5.63968 5.57243 5.78033 5.70136C5.92098 5.8303 6 6.00516 6 6.1875V15.8125C6 15.9948 5.92098 16.1697 5.78033 16.2986C5.63968 16.4276 5.44891 16.5 5.25 16.5C5.05109 16.5 4.86032 16.4276 4.71967 16.2986C4.57902 16.1697 4.5 15.9948 4.5 15.8125V6.1875ZM7.5 6.1875C7.5 6.00516 7.57902 5.8303 7.71967 5.70136C7.86032 5.57243 8.05109 5.5 8.25 5.5C8.44891 5.5 8.63968 5.57243 8.78033 5.70136C8.92098 5.8303 9 6.00516 9 6.1875V15.8125C9 15.9948 8.92098 16.1697 8.78033 16.2986C8.63968 16.4276 8.44891 16.5 8.25 16.5C8.05109 16.5 7.86032 16.4276 7.71967 16.2986C7.57902 16.1697 7.5 15.9948 7.5 15.8125V6.1875ZM10.5 6.1875C10.5 6.00516 10.579 5.8303 10.7197 5.70136C10.8603 5.57243 11.0511 5.5 11.25 5.5C11.4489 5.5 11.6397 5.57243 11.7803 5.70136C11.921 5.8303 12 6.00516 12 6.1875V15.8125C12 15.9948 11.921 16.1697 11.7803 16.2986C11.6397 16.4276 11.4489 16.5 11.25 16.5C11.0511 16.5 10.8603 16.4276 10.7197 16.2986C10.579 16.1697 10.5 15.9948 10.5 15.8125V6.1875ZM13.5 6.1875C13.5 6.00516 13.579 5.8303 13.7197 5.70136C13.8603 5.57243 14.0511 5.5 14.25 5.5H15.75C15.9489 5.5 16.1397 5.57243 16.2803 5.70136C16.421 5.8303 16.5 6.00516 16.5 6.1875V15.8125C16.5 15.9948 16.421 16.1697 16.2803 16.2986C16.1397 16.4276 15.9489 16.5 15.75 16.5H14.25C14.0511 16.5 13.8603 16.4276 13.7197 16.2986C13.579 16.1697 13.5 15.9948 13.5 15.8125V6.1875ZM18 6.1875C18 6.00516 18.079 5.8303 18.2197 5.70136C18.3603 5.57243 18.5511 5.5 18.75 5.5C18.9489 5.5 19.1397 5.57243 19.2803 5.70136C19.421 5.8303 19.5 6.00516 19.5 6.1875V15.8125C19.5 15.9948 19.421 16.1697 19.2803 16.2986C19.1397 16.4276 18.9489 16.5 18.75 16.5C18.5511 16.5 18.3603 16.4276 18.2197 16.2986C18.079 16.1697 18 15.9948 18 15.8125V6.1875Z" fill="white"/>
</svg>
