<svg width="24" height="24" viewBox="0 0 24 24" fill="none" xmlns="http://www.w3.org/2000/svg">
<path d="M12 24C12.9093 24 13.7814 23.6839 14.4244 23.1214C15.0673 22.5588 15.4286 21.7958 15.4286 21.0002H8.57143C8.57143 21.7958 8.93265 22.5588 9.57563 23.1214C10.2186 23.6839 11.0907 24 12 24ZM12 2.87815L10.6337 3.11964C9.08393 3.39593 7.69085 4.13224 6.69026 5.20396C5.68967 6.27568 5.14303 7.61697 5.14286 9.00082C5.14286 9.94277 4.91314 12.2961 4.356 14.6135C4.08171 15.7639 3.71143 16.9624 3.21943 18.0003H20.7806C20.2886 16.9624 19.92 15.7654 19.644 14.6135C19.0869 12.2961 18.8571 9.94277 18.8571 9.00082C18.8566 7.61723 18.3098 6.27629 17.3092 5.20488C16.3086 4.13347 14.9158 3.39738 13.3663 3.12114L12 2.87666V2.87815ZM22.6629 18.0003C23.0451 18.6708 23.4874 19.2018 24 19.5002H0C0.512571 19.2018 0.954857 18.6708 1.33714 18.0003C2.88 15.3005 3.42857 10.3207 3.42857 9.00082C3.42857 5.37102 6.37714 2.34118 10.2943 1.64972C10.2704 1.44116 10.2967 1.23053 10.3715 1.03142C10.4463 0.832297 10.568 0.649112 10.7287 0.493673C10.8894 0.338234 11.0856 0.213993 11.3046 0.128962C11.5235 0.0439318 11.7604 0 12 0C12.2396 0 12.4765 0.0439318 12.6954 0.128962C12.9144 0.213993 13.1106 0.338234 13.2713 0.493673C13.432 0.649112 13.5537 0.832297 13.6285 1.03142C13.7033 1.23053 13.7296 1.44116 13.7057 1.64972C15.6433 1.99455 17.3852 2.91469 18.6364 4.25433C19.8876 5.59397 20.5712 7.27078 20.5714 9.00082C20.5714 10.3207 21.12 15.3005 22.6629 18.0003Z" fill="white"/>
</svg>
