<svg width="56" height="56" viewBox="0 0 56 56" fill="none" xmlns="http://www.w3.org/2000/svg">
<g filter="url(#filter0_dd_1920_269)">
<rect x="8" y="6" width="40" height="40" rx="8" fill="#DFA634"/>
<path d="M28 38C28.9093 38 29.7814 37.6839 30.4244 37.1214C31.0673 36.5588 31.4286 35.7958 31.4286 35.0002H24.5714C24.5714 35.7958 24.9327 36.5588 25.5756 37.1214C26.2186 37.6839 27.0907 38 28 38ZM28 16.8782L26.6337 17.1196C25.0839 17.3959 23.6909 18.1322 22.6903 19.204C21.6897 20.2757 21.143 21.617 21.1429 23.0008C21.1429 23.9428 20.9131 26.2961 20.356 28.6135C20.0817 29.7639 19.7114 30.9624 19.2194 32.0003H36.7806C36.2886 30.9624 35.92 29.7654 35.644 28.6135C35.0869 26.2961 34.8571 23.9428 34.8571 23.0008C34.8566 21.6172 34.3098 20.2763 33.3092 19.2049C32.3086 18.1335 30.9158 17.3974 29.3663 17.1211L28 16.8767V16.8782ZM38.6629 32.0003C39.0451 32.6708 39.4874 33.2018 40 33.5002H16C16.5126 33.2018 16.9549 32.6708 17.3371 32.0003C18.88 29.3005 19.4286 24.3207 19.4286 23.0008C19.4286 19.371 22.3771 16.3412 26.2943 15.6497C26.2704 15.4412 26.2967 15.2305 26.3715 15.0314C26.4463 14.8323 26.568 14.6491 26.7287 14.4937C26.8894 14.3382 27.0856 14.214 27.3046 14.129C27.5235 14.0439 27.7604 14 28 14C28.2396 14 28.4765 14.0439 28.6954 14.129C28.9144 14.214 29.1106 14.3382 29.2713 14.4937C29.432 14.6491 29.5537 14.8323 29.6285 15.0314C29.7033 15.2305 29.7296 15.4412 29.7057 15.6497C31.6433 15.9946 33.3852 16.9147 34.6364 18.2543C35.8876 19.594 36.5712 21.2708 36.5714 23.0008C36.5714 24.3207 37.12 29.3005 38.6629 32.0003Z" fill="white"/>
</g>
<defs>
<filter id="filter0_dd_1920_269" x="0" y="0" width="56" height="56" filterUnits="userSpaceOnUse" color-interpolation-filters="sRGB">
<feFlood flood-opacity="0" result="BackgroundImageFix"/>
<feColorMatrix in="SourceAlpha" type="matrix" values="0 0 0 0 0 0 0 0 0 0 0 0 0 0 0 0 0 0 127 0" result="hardAlpha"/>
<feOffset dy="1"/>
<feGaussianBlur stdDeviation="1"/>
<feColorMatrix type="matrix" values="0 0 0 0 0 0 0 0 0 0 0 0 0 0 0 0 0 0 0.3 0"/>
<feBlend mode="normal" in2="BackgroundImageFix" result="effect1_dropShadow_1920_269"/>
<feColorMatrix in="SourceAlpha" type="matrix" values="0 0 0 0 0 0 0 0 0 0 0 0 0 0 0 0 0 0 127 0" result="hardAlpha"/>
<feMorphology radius="2" operator="dilate" in="SourceAlpha" result="effect2_dropShadow_1920_269"/>
<feOffset dy="2"/>
<feGaussianBlur stdDeviation="3"/>
<feColorMatrix type="matrix" values="0 0 0 0 0 0 0 0 0 0 0 0 0 0 0 0 0 0 0.15 0"/>
<feBlend mode="normal" in2="effect1_dropShadow_1920_269" result="effect2_dropShadow_1920_269"/>
<feBlend mode="normal" in="SourceGraphic" in2="effect2_dropShadow_1920_269" result="shape"/>
</filter>
</defs>
</svg>
