<svg width="24" height="24" viewBox="0 0 24 24" fill="none" xmlns="http://www.w3.org/2000/svg">
<path fill-rule="evenodd" clip-rule="evenodd" d="M22.3343 0.0977839C21.6233 -0.0118567 20.7999 -0.0300892 20.0452 0.0470969C19.2905 0.124283 18.6663 0.290566 18.31 0.509367L0.317764 11.5834C0.108805 11.7117 0 11.8532 0 11.9968C0 12.1403 0.108805 12.2819 0.317764 12.4102L18.31 23.4842C18.4846 23.5935 18.7277 23.6911 19.0254 23.7713C19.3231 23.8516 19.6695 23.9129 20.0445 23.9518C20.4196 23.9906 20.816 24.0063 21.2107 23.9977C21.6055 23.9892 21.9909 23.9568 22.3448 23.9022C22.6986 23.8476 23.0138 23.7721 23.2722 23.6798C23.5307 23.5876 23.7272 23.4805 23.8506 23.3648C23.974 23.2491 24.0217 23.127 23.991 23.0056C23.9603 22.8842 23.8518 22.7658 23.6717 22.6573L6.35717 11.9968L23.6717 1.33623C24.028 1.11742 24.0873 0.864017 23.8364 0.631766C23.5856 0.399516 23.0453 0.207438 22.3343 0.0977839Z" fill="#111B59"/>
</svg>
