<svg width="24" height="24" viewBox="0 0 24 24" fill="none" xmlns="http://www.w3.org/2000/svg">
<path fill-rule="evenodd" clip-rule="evenodd" d="M1.6657 0.0977839C2.3767 -0.0118567 3.20012 -0.0300892 3.95481 0.0470969C4.7095 0.124283 5.33365 0.290566 5.68997 0.509367L23.6822 11.5834C23.8912 11.7117 24 11.8532 24 11.9968C24 12.1403 23.8912 12.2819 23.6822 12.4102L5.68997 23.4842C5.51541 23.5935 5.27228 23.6911 4.97458 23.7713C4.67689 23.8516 4.33052 23.9129 3.95546 23.9518C3.58039 23.9906 3.18404 24.0063 2.78925 23.9977C2.39447 23.9892 2.00906 23.9568 1.65525 23.9022C1.30144 23.8476 0.986218 23.7721 0.727769 23.6798C0.469319 23.5876 0.272752 23.4805 0.149395 23.3648C0.0260393 23.2491 -0.0216635 23.127 0.00903668 23.0056C0.0397369 22.8842 0.148233 22.7658 0.32827 22.6573L17.6428 11.9968L0.32827 1.33623C-0.0280035 1.11742 -0.0872508 0.864017 0.163563 0.631766C0.414376 0.399516 0.954708 0.207438 1.6657 0.0977839Z" fill="#EBEBEB"/>
</svg>
